<?xml version="1.0" encoding="UTF-8"?>
<svg width="12" height="12" version="1.1" viewBox="0 0 12 12" xmlns="http://www.w3.org/2000/svg">
 <rect x="3" y="3" width="6" height="6" rx="1"/>
 <g clip-rule="evenodd" fill-rule="evenodd">
  <path d="m0.5 0c-0.27614 0-0.5 0.22386-0.5 0.5v3c0 0.27614 0.22386 0.5 0.5 0.5s0.5-0.22386 0.5-0.5v-2.5h2.5c0.27614 0 0.5-0.22386 0.5-0.5s-0.22386-0.5-0.5-0.5h-3z" opacity=".5"/>
  <path d="m11.5 12c0.2761 0 0.5-0.2239 0.5-0.5v-3c0-0.27614-0.2239-0.5-0.5-0.5s-0.5 0.22386-0.5 0.5v2.5h-2.5c-0.27614 0-0.5 0.2239-0.5 0.5s0.22386 0.5 0.5 0.5h3z" opacity=".5"/>
  <path d="m12 0.5c0-0.27614-0.2239-0.5-0.5-0.5l-3-1.3113e-7c-0.27614-1.2071e-8 -0.5 0.22386-0.5 0.5 0 0.27614 0.22386 0.5 0.5 0.5h2.5v2.5c0 0.27614 0.2239 0.5 0.5 0.5s0.5-0.22386 0.5-0.5v-3z" opacity=".5"/>
  <path d="m-2.1856e-8 11.5c1.2071e-8 0.2761 0.22386 0.5 0.5 0.5h3c0.27614 0 0.5-0.2239 0.5-0.5s-0.22386-0.5-0.5-0.5h-2.5v-2.5c0-0.27614-0.22386-0.5-0.5-0.5-0.27614 0-0.5 0.22386-0.5 0.5l1.3113e-7 3z" opacity=".5"/>
 </g>
</svg>
