<?xml version="1.0" encoding="UTF-8"?>
<svg width="10" height="8" fill="none" version="1.1" viewBox="0 0 10 8" xmlns="http://www.w3.org/2000/svg">
 <path d="m9.7912 1.302c0.2779-0.29796 0.2779-0.78105 0-1.079-0.27789-0.29796-0.72844-0.29796-1.0063 0l-3.019 3.237c-0.27789 0.29797-0.27789 0.78106 0 1.079l0.01211 0.01268 3.0073 3.2245c0.2779 0.29796 0.72845 0.29796 1.0063 0 0.27792-0.29797 0.27792-0.78106 0-1.079l-2.5161-2.6978 2.5157-2.6974zm-5.5578 2e-4c0.2779-0.29796 0.2779-0.78105 0-1.079-0.27789-0.29796-0.72844-0.29796-1.0063 0l-3.019 3.2371c-0.27789 0.29796-0.27789 0.78105 0 1.079l0.012107 0.01269 3.0073 3.2245c0.2779 0.29796 0.72845 0.29796 1.0063 0s0.27789-0.78105 0-1.079l-2.5161-2.6978 2.5157-2.6974z" clip-rule="evenodd" fill="#000" fill-rule="evenodd"/>
</svg>
