<?xml version="1.0" encoding="UTF-8"?>
<svg width="8" height="8" fill="none" version="1.1" viewBox="0 0 8 8" xmlns="http://www.w3.org/2000/svg">
 <path d="M4 0C3.63181 0 3.33333 0.298477 3.33333 0.666667V3.33333H0.666667C0.298477 3.33333 0 3.63181 0 4C0 4.36819 0.298477 4.66667 0.666667 4.66667H3.33333V7.33333C3.33333 7.70152 3.63181 8 4 8C4.36819 8 4.66667 7.70152 4.66667 7.33333V4.66667H7.33333C7.70152 4.66667 8 4.36819 8 4C8 3.63181 7.70152 3.33333 7.33333 3.33333H4.66667V0.666667C4.66667 0.298477 4.36819 0 4 0Z" clip-rule="evenodd" fill="#000" fill-rule="evenodd"/>
</svg>
