<?xml version="1.0" encoding="UTF-8"?>
<svg width="7.7776" height="8" fill="none" version="1.1" viewBox="0 0 7.7776 8" xmlns="http://www.w3.org/2000/svg">
 <path d="m6.8638 4.39c0.015-0.125 0.025-0.255 0.025-0.39s-0.01-0.265-0.03-0.39l0.845-0.66c0.075-0.06 0.095-0.17 0.05-0.255l-0.8-1.385c-0.05-0.09-0.155-0.12-0.245-0.09l-0.995 0.4c-0.21-0.16-0.43-0.29-0.675-0.39l-0.15-1.06c-0.015-0.1-0.1-0.17-0.2-0.17h-1.6c-0.1 0-0.18 0.07-0.195 0.17l-0.15 1.06c-0.245 0.1-0.47 0.235-0.675 0.39l-0.995-0.4c-0.09-0.035-0.195 0-0.245 0.09l-0.8 1.385c-0.05 0.09-0.03 0.195 0.05 0.255l0.845 0.66c-0.02 0.125-0.035 0.26-0.035 0.39s0.01 0.265 0.03 0.39l-0.845 0.66c-0.075 0.06-0.095 0.17-0.05 0.255l0.8 1.385c0.05 0.09 0.155 0.12 0.245 0.09l0.995-0.4c0.21 0.16 0.43 0.29 0.675 0.39l0.15 1.06c0.02 0.1 0.1 0.17 0.2 0.17h1.6c0.1 0 0.185-0.07 0.195-0.17l0.15-1.06c0.245-0.1 0.47-0.235 0.675-0.39l0.995 0.4c0.09 0.035 0.195 0 0.245-0.09l0.8-1.385c0.05-0.09 0.03-0.195-0.05-0.255zm-2.975 1.11c-0.825 0-1.5-0.675-1.5-1.5s0.675-1.5 1.5-1.5 1.5 0.675 1.5 1.5-0.675 1.5-1.5 1.5z" fill="#000"/>
</svg>
