<?xml version="1.0" encoding="UTF-8"?>
<svg width="32" height="32" fill="#000000" version="1.1" viewBox="0 0 32 32" xmlns="http://www.w3.org/2000/svg">
 <path d="m0-3h24v24h-24z" fill="none"/>
 <path d="m25.88024 7.2677502h-15c-0.69 0-1.2300005 0.35-1.5900005 0.88l-5.41 8.1199998 5.41 8.11c0.36 0.53 0.9000005 0.89 1.5900005 0.89h15c1.1 0 2-0.9 2-2v-13.9999998c0-1.1-0.9-2-2-2zm0 15.9999998h-14.93l-4.6700005-7 4.6600005-6.9999998h14.94zm-11.59-2 3.59-3.59 3.59 3.59 1.41-1.41-3.59-3.59 3.59-3.59-1.41-1.41-3.59 3.59-3.59-3.59-1.41 1.41 3.59 3.59-3.59 3.59z"/>
</svg>
