<?xml version="1.0" encoding="UTF-8"?>
<svg width="11.892" height="12" fill="none" version="1.1" viewBox="0 0 11.892 12" xmlns="http://www.w3.org/2000/svg">
 <mask id="mask0" x="0" y="0" width="13" height="12" mask-type="alpha" maskUnits="userSpaceOnUse">
  <path d="m0.93701 2c0-1.1046 0.89543-2 2-2h7.8919c1.1046 0 2 0.89543 2 2v8c0 1.1046-0.8954 2-2 2h-7.8919c-1.1046 0-2-0.8954-2-2z" fill="#fff"/>
 </mask>
 <g transform="translate(-.93701)" mask="url(#mask0)">
  <path d="m0.93701 2c0-1.1046 0.89543-2 2-2h7.8919c1.1046 0 2 0.89543 2 2v8c0 1.1046-0.8954 2-2 2h-7.8919c-1.1046 0-2-0.8954-2-2z" fill="#fff"/>
  <g fill="#eb5757">
   <rect x="6.8828" y="2" width="5.946" height="2"/>
   <rect x=".93701" y="6" width="11.892" height="2"/>
   <rect x=".93701" y="10" width="11.892" height="2"/>
  </g>
  <path d="m0.93701 0h5.9459v6h-5.9459z" fill="#2f80ed"/>
 </g>
</svg>
