<?xml version="1.0" encoding="UTF-8"?>
<svg width="38" height="38" fill="none" version="1.1" viewBox="0 0 38 38" xmlns="http://www.w3.org/2000/svg">
 <g filter="url(#filter0_i)">
  <g filter="url(#filter1_i)">
   <rect width="38" height="38" rx="8" fill="url(#paint0_linear)"/>
  </g>
  <rect x="5" y="9" width="28" height="20" rx="3" fill="#fff"/>
  <g filter="url(#filter2_f)">
   <path d="m19.676 24.38c-0.3823 0.3506-0.9693 0.3506-1.3516 0l-12.152-11.143c-0.67213-0.6163-0.23608-1.737 0.67585-1.737h24.305c0.9119 0 1.3479 1.1207 0.6758 1.737l-12.152 11.143z" fill="url(#paint1_linear)"/>
  </g>
  <path d="m19.676 22.38c-0.3823 0.3506-0.9693 0.3506-1.3516 0l-12.152-11.143c-0.67213-0.6163-0.23608-1.737 0.67585-1.737h24.305c0.9119 0 1.3479 1.1207 0.6758 1.737l-12.152 11.143z" fill="#fff"/>
 </g>
 <defs>
  <filter id="filter0_i" x="0" y="0" width="38" height="39" color-interpolation-filters="sRGB" filterUnits="userSpaceOnUse">
   <feFlood flood-opacity="0" result="BackgroundImageFix"/>
   <feBlend in="SourceGraphic" in2="BackgroundImageFix" result="shape"/>
   <feColorMatrix in="SourceAlpha" result="hardAlpha" values="0 0 0 0 0 0 0 0 0 0 0 0 0 0 0 0 0 0 127 0"/>
   <feOffset dy="1"/>
   <feGaussianBlur stdDeviation="1"/>
   <feComposite in2="hardAlpha" k2="-1" k3="1" operator="arithmetic"/>
   <feColorMatrix values="0 0 0 0 1 0 0 0 0 1 0 0 0 0 1 0 0 0 0.1 0"/>
   <feBlend in2="shape" result="effect1_innerShadow"/>
  </filter>
  <filter id="filter1_i" x="0" y="0" width="38" height="39" color-interpolation-filters="sRGB" filterUnits="userSpaceOnUse">
   <feFlood flood-opacity="0" result="BackgroundImageFix"/>
   <feBlend in="SourceGraphic" in2="BackgroundImageFix" result="shape"/>
   <feColorMatrix in="SourceAlpha" result="hardAlpha" values="0 0 0 0 0 0 0 0 0 0 0 0 0 0 0 0 0 0 127 0"/>
   <feOffset dy="1"/>
   <feGaussianBlur stdDeviation="1"/>
   <feComposite in2="hardAlpha" k2="-1" k3="1" operator="arithmetic"/>
   <feColorMatrix values="0 0 0 0 1 0 0 0 0 1 0 0 0 0 1 0 0 0 0.05 0"/>
   <feBlend in2="shape" result="effect1_innerShadow"/>
  </filter>
  <filter id="filter2_f" x="1.8457" y="7.5" width="34.308" height="21.143" color-interpolation-filters="sRGB" filterUnits="userSpaceOnUse">
   <feFlood flood-opacity="0" result="BackgroundImageFix"/>
   <feBlend in="SourceGraphic" in2="BackgroundImageFix" result="shape"/>
   <feGaussianBlur result="effect1_foregroundBlur" stdDeviation="2"/>
  </filter>
  <linearGradient id="paint0_linear" x1="19" x2="19" y2="38" gradientUnits="userSpaceOnUse">
   <stop stop-color="#2F80ED" offset="0"/>
   <stop stop-color="#1F60B9" offset="1"/>
  </linearGradient>
  <linearGradient id="paint1_linear" x1="19" x2="19" y1="28" y2="9.5" gradientUnits="userSpaceOnUse">
   <stop stop-color="#2369C8" stop-opacity=".8" offset="0"/>
   <stop stop-color="#fff" stop-opacity="0" offset="1"/>
  </linearGradient>
 </defs>
</svg>
