<svg width="2560" height="1440" viewBox="0 0 2560 1440" fill="none" xmlns="http://www.w3.org/2000/svg">
<g clip-path="url(#clip0_303_2)">
<rect width="2560" height="1440" fill="black"/>
<path d="M1694.99 891.872V549.231H1714.04V891.872H1694.99ZM1280.59 987.77L866.222 905.27V892.587H847.178V549.231H866.222V535.873L1280.59 453.333L1694.99 535.873V555.116L1280.59 472.577L866.222 555.116V886.027L1280.59 968.526L1694.99 886.027V905.27L1280.59 987.77Z" fill="#333333"/>
<path d="M1700.84 549.232H1720V891.872H1700.96L1700.84 549.232Z" fill="#333333"/>
<path d="M841.333 549.232H860.378V892.588H841.333V549.232Z" fill="#333333"/>
<path d="M841.333 550.703H860.378V555.116H841.333V550.703Z" fill="#333333"/>
<path d="M841.333 886.027H860.378V890.401H841.333V886.027Z" fill="#333333"/>
<path d="M1700.84 550.703H1720V555.116H1700.96L1700.84 550.703Z" fill="#333333"/>
<path d="M1700.84 886.027H1720V890.401H1700.96L1700.84 886.027Z" fill="#333333"/>
<path d="M841.333 535.873L1280.59 453.333V472.577L841.333 555.116V535.873Z" fill="#333333"/>
<path d="M1720 535.873L1280.59 453.333V472.577L1720 555.116V535.873Z" fill="#333333"/>
<path d="M841.333 905.271L1280.59 987.77V968.527L841.333 886.027V905.271Z" fill="#333333"/>
<path d="M1720 905.271L1280.59 987.77V968.527L1720 886.027V905.271Z" fill="#333333"/>
<path d="M1417.52 541.201L1508.6 723.693L1421.13 901.255H1427.85L1494.45 874.18L1549.04 787.545L1588 871.595L1593.89 872.112L1618.78 848.694L1587.37 723.693L1636.51 590.223L1596.75 571.934H1590.47L1549.04 660.079L1498.7 568.634L1423.16 541.559L1417.52 541.201Z" fill="#333333"/>
<path d="M1423.36 541.201L1514.45 723.693L1426.98 901.255L1512.3 886.067L1555 787.545L1593.97 871.595L1654.04 860.9L1593.21 723.693L1656.39 582.271L1596.75 571.735L1555 660.079L1509.28 556.707L1423.36 541.201Z" fill="#333333"/>
<path d="M1552.14 794.145L1544.19 764.485L1554.92 787.704L1552.14 794.145Z" fill="#333333"/>
<path opacity="0.5" d="M1562.48 677.375L1554.52 659.125L1554.88 659.881L1557.71 653.837H1557.94L1562.48 677.375Z" fill="#333333"/>
<path d="M1164.21 902.846V544.104L1156.86 542.672L1097.58 586.407L1022.04 699.162L965.698 576.587H959.218L940.73 711.05L953.93 868.455L960.609 868.018V724.886L1016.27 825.993H1023.59L1093.16 723.694L1113.68 858.873L1157.41 903.562L1164.21 902.846Z" fill="#333333"/>
<path d="M1158.01 903.482V542.672L1082.47 558.178L1016.03 699.321L959.854 576.587L909.162 585.413V859.271L954.566 868.057V724.926L1014.2 826.072H1017.86L1087.32 723.694V890.68L1158.01 903.482Z" fill="#333333"/>
<path d="M1103.42 698.605L1087.32 732.281V723.693L1075.39 741.267L1103.42 698.605Z" fill="#333333"/>
<path opacity="0.5" d="M954.527 725.283V736.933L950.551 719.081L954.527 725.283Z" fill="#333333"/>
<path d="M1271.09 922.486V757.885L1358.2 739.596L1381.18 687.632H1271.05V618.054L1390.32 608.552L1409.33 541.201H1186.68L1265.76 923.361L1271.09 922.486Z" fill="#333333"/>
<path opacity="0.3" d="M1271.05 618.054V628.272L1237.41 618.015H1271.05V618.054Z" fill="#333333"/>
<path opacity="0.3" d="M1243.25 757.885H1271.09V764.485L1243.25 757.885Z" fill="#333333"/>
<path d="M1266.75 923.361V757.885H1373.62L1387.1 687.632H1266.75V618.054H1399.35L1412.51 541.201H1182.5V907.974L1266.75 923.361Z" fill="#333333"/>
<path d="M1266.75 757.885V763.77L1243.29 757.885H1266.75Z" fill="#333333"/>
<path d="M1266.75 618.055V626.841L1237.53 618.055H1266.75Z" fill="#333333"/>
<line opacity="0.22" x1="3137" y1="19.189" x2="-120.28" y2="19.189" stroke="white"/>
<line opacity="0.22" x1="3137" y1="37.8779" x2="-120.28" y2="37.8779" stroke="white"/>
<line opacity="0.22" x1="3137" y1="56.5669" x2="-120.28" y2="56.5669" stroke="white"/>
<line opacity="0.22" x1="3137" y1="75.2554" x2="-120.28" y2="75.2554" stroke="white"/>
<line opacity="0.4" x1="3137" y1="93.9443" x2="-120.28" y2="93.9443" stroke="white"/>
<line opacity="0.22" x1="3137" y1="112.633" x2="-120.28" y2="112.633" stroke="white"/>
<line opacity="0.22" x1="3137" y1="131.322" x2="-120.28" y2="131.322" stroke="white"/>
<line opacity="0.22" x1="3137" y1="150.011" x2="-120.28" y2="150.011" stroke="white"/>
<line opacity="0.22" x1="3137" y1="168.7" x2="-120.28" y2="168.7" stroke="white"/>
<line opacity="0.4" x1="3137" y1="187.389" x2="-120.28" y2="187.389" stroke="white"/>
<line opacity="0.22" x1="3137" y1="206.078" x2="-120.28" y2="206.078" stroke="white"/>
<line opacity="0.22" x1="3137" y1="224.767" x2="-120.28" y2="224.767" stroke="white"/>
<line opacity="0.22" x1="3137" y1="243.456" x2="-120.28" y2="243.456" stroke="white"/>
<line opacity="0.22" x1="3137" y1="262.145" x2="-120.28" y2="262.145" stroke="white"/>
<line opacity="0.4" x1="3137" y1="280.833" x2="-120.28" y2="280.833" stroke="white"/>
<line opacity="0.22" x1="3137" y1="299.522" x2="-120.28" y2="299.522" stroke="white"/>
<line opacity="0.22" x1="3137" y1="318.211" x2="-120.28" y2="318.211" stroke="white"/>
<line opacity="0.22" x1="3137" y1="336.9" x2="-120.28" y2="336.9" stroke="white"/>
<line opacity="0.22" x1="3137" y1="355.589" x2="-120.28" y2="355.589" stroke="white"/>
<line opacity="0.7" x1="3137" y1="374.278" x2="-120.28" y2="374.278" stroke="white"/>
<line opacity="0.22" x1="3137" y1="392.967" x2="-120.28" y2="392.967" stroke="white"/>
<line opacity="0.22" x1="3137" y1="411.656" x2="-120.28" y2="411.656" stroke="white"/>
<line opacity="0.22" x1="3137" y1="430.344" x2="-120.28" y2="430.344" stroke="white"/>
<line opacity="0.22" x1="3137" y1="449.033" x2="-120.28" y2="449.033" stroke="white"/>
<line opacity="0.4" x1="3137" y1="467.722" x2="-120.28" y2="467.722" stroke="white"/>
<line opacity="0.22" x1="3137" y1="486.411" x2="-120.28" y2="486.411" stroke="white"/>
<line opacity="0.22" x1="3137" y1="505.1" x2="-120.28" y2="505.1" stroke="white"/>
<line opacity="0.22" x1="3137" y1="523.789" x2="-120.28" y2="523.789" stroke="white"/>
<line opacity="0.22" x1="3137" y1="542.478" x2="-120.28" y2="542.478" stroke="white"/>
<line opacity="0.4" x1="3137" y1="561.167" x2="-120.28" y2="561.167" stroke="white"/>
<line opacity="0.22" x1="3137" y1="579.855" x2="-120.28" y2="579.855" stroke="white"/>
<line opacity="0.22" x1="3137" y1="598.544" x2="-120.28" y2="598.544" stroke="white"/>
<line opacity="0.22" x1="3137" y1="617.233" x2="-120.28" y2="617.233" stroke="white"/>
<line opacity="0.22" x1="3137" y1="635.922" x2="-120.28" y2="635.922" stroke="white"/>
<line opacity="0.4" x1="3137" y1="654.611" x2="-120.28" y2="654.611" stroke="white"/>
<line opacity="0.22" x1="3137" y1="673.3" x2="-120.28" y2="673.3" stroke="white"/>
<line opacity="0.22" x1="3137" y1="691.989" x2="-120.28" y2="691.989" stroke="white"/>
<line opacity="0.22" x1="3137" y1="710.678" x2="-120.28" y2="710.678" stroke="white"/>
<line opacity="0.22" x1="3137" y1="729.367" x2="-120.28" y2="729.367" stroke="white"/>
<line opacity="0.7" x1="3137" y1="748.056" x2="-120.28" y2="748.056" stroke="white"/>
<line opacity="0.22" x1="3137" y1="766.745" x2="-120.28" y2="766.745" stroke="white"/>
<line opacity="0.22" x1="3137" y1="785.434" x2="-120.28" y2="785.434" stroke="white"/>
<line opacity="0.22" x1="3137" y1="804.122" x2="-120.28" y2="804.122" stroke="white"/>
<line opacity="0.22" x1="3137" y1="822.811" x2="-120.28" y2="822.811" stroke="white"/>
<line opacity="0.4" x1="3137" y1="841.5" x2="-120.28" y2="841.5" stroke="white"/>
<line opacity="0.22" x1="3137" y1="860.189" x2="-120.28" y2="860.189" stroke="white"/>
<line opacity="0.22" x1="3137" y1="878.878" x2="-120.28" y2="878.878" stroke="white"/>
<line opacity="0.22" x1="3137" y1="897.566" x2="-120.28" y2="897.566" stroke="white"/>
<line opacity="0.22" x1="3137" y1="916.255" x2="-120.28" y2="916.255" stroke="white"/>
<line opacity="0.4" x1="3137" y1="934.944" x2="-120.28" y2="934.944" stroke="white"/>
<line opacity="0.22" x1="3137" y1="953.633" x2="-120.28" y2="953.633" stroke="white"/>
<line opacity="0.22" x1="3137" y1="972.322" x2="-120.28" y2="972.322" stroke="white"/>
<line opacity="0.22" x1="3137" y1="991.011" x2="-120.28" y2="991.011" stroke="white"/>
<line opacity="0.22" x1="3137" y1="1009.7" x2="-120.28" y2="1009.7" stroke="white"/>
<line opacity="0.4" x1="3137" y1="1028.39" x2="-120.28" y2="1028.39" stroke="white"/>
<line opacity="0.22" x1="3137" y1="1047.08" x2="-120.28" y2="1047.08" stroke="white"/>
<line opacity="0.22" x1="3137" y1="1065.77" x2="-120.28" y2="1065.77" stroke="white"/>
<line opacity="0.22" x1="3137" y1="1084.46" x2="-120.28" y2="1084.46" stroke="white"/>
<line opacity="0.22" x1="3137" y1="1103.14" x2="-120.28" y2="1103.14" stroke="white"/>
<line opacity="0.7" x1="3137" y1="1121.83" x2="-120.28" y2="1121.83" stroke="white"/>
<line opacity="0.22" x1="3137" y1="1140.52" x2="-120.28" y2="1140.52" stroke="white"/>
<line opacity="0.22" x1="3137" y1="1159.21" x2="-120.28" y2="1159.21" stroke="white"/>
<line opacity="0.22" x1="3137" y1="1177.9" x2="-120.28" y2="1177.9" stroke="white"/>
<line opacity="0.22" x1="3137" y1="1196.59" x2="-120.28" y2="1196.59" stroke="white"/>
<line opacity="0.4" x1="3137" y1="1215.28" x2="-120.28" y2="1215.28" stroke="white"/>
<line opacity="0.22" x1="3137" y1="1233.97" x2="-120.28" y2="1233.97" stroke="white"/>
<line opacity="0.22" x1="3137" y1="1252.66" x2="-120.28" y2="1252.66" stroke="white"/>
<line opacity="0.22" x1="3137" y1="1271.34" x2="-120.28" y2="1271.34" stroke="white"/>
<line opacity="0.22" x1="3137" y1="1290.03" x2="-120.28" y2="1290.03" stroke="white"/>
<line opacity="0.4" x1="3137" y1="1308.72" x2="-120.28" y2="1308.72" stroke="white"/>
<line opacity="0.22" x1="3137" y1="1327.41" x2="-120.28" y2="1327.41" stroke="white"/>
<line opacity="0.22" x1="3137" y1="1346.1" x2="-120.28" y2="1346.1" stroke="white"/>
<line opacity="0.22" x1="3137" y1="1364.79" x2="-120.28" y2="1364.79" stroke="white"/>
<line opacity="0.4" x1="3137" y1="1383.48" x2="-120.28" y2="1383.48" stroke="white"/>
<line opacity="0.22" x1="3137" y1="1402.17" x2="-120.28" y2="1402.17" stroke="white"/>
<line opacity="0.22" x1="3137" y1="1420.86" x2="-120.28" y2="1420.86" stroke="white"/>
<line opacity="0.22" x1="3137" y1="1439.54" x2="-120.28" y2="1439.54" stroke="white"/>
<line opacity="0.4" x1="1696.28" y1="0.5" x2="-1561" y2="0.5" stroke="white"/>
<line opacity="0.4" x1="0.5" y1="-40" x2="0.4997" y2="1653.33" stroke="white"/>
<line opacity="0.4" x1="79.1667" y1="-40" x2="79.1663" y2="1653.33" stroke="white"/>
<line opacity="0.22" x1="19.1667" y1="-40" x2="19.1663" y2="1653.33" stroke="white"/>
<line opacity="0.22" x1="119.167" y1="-40" x2="119.166" y2="1653.33" stroke="white"/>
<line opacity="0.22" x1="59.1667" y1="-40" x2="59.1663" y2="1653.33" stroke="white"/>
<line opacity="0.22" x1="199.167" y1="-40" x2="199.166" y2="1653.33" stroke="white"/>
<line opacity="0.22" x1="159.167" y1="-40" x2="159.166" y2="1653.33" stroke="white"/>
<line opacity="0.22" x1="317.833" y1="-40" x2="317.833" y2="1653.33" stroke="white"/>
<line opacity="0.22" x1="336.5" y1="-40" x2="336.5" y2="1653.33" stroke="white"/>
<line opacity="0.22" x1="496.5" y1="-40" x2="496.5" y2="1653.33" stroke="white"/>
<line opacity="0.22" x1="40.5" y1="-40" x2="40.4996" y2="1653.33" stroke="white"/>
<line opacity="0.4" x1="177.833" y1="-40" x2="177.833" y2="1653.33" stroke="white"/>
<line opacity="0.22" x1="100.5" y1="-40" x2="100.5" y2="1653.33" stroke="white"/>
<line opacity="0.22" x1="237.833" y1="-40" x2="237.833" y2="1653.33" stroke="white"/>
<line opacity="0.22" x1="219.167" y1="-40" x2="219.166" y2="1653.33" stroke="white"/>
<line opacity="0.22" x1="357.833" y1="-40" x2="357.833" y2="1653.33" stroke="white"/>
<line opacity="0.7" x1="377.833" y1="-40" x2="377.833" y2="1653.33" stroke="white"/>
<line opacity="0.22" x1="517.833" y1="-40" x2="517.833" y2="1653.33" stroke="white"/>
<line opacity="0.22" x1="616.5" y1="-40" x2="616.5" y2="1653.33" stroke="white"/>
<line opacity="0.22" x1="140.5" y1="-40" x2="140.5" y2="1653.33" stroke="white"/>
<line opacity="0.4" x1="277.833" y1="-40" x2="277.833" y2="1653.33" stroke="white"/>
<line opacity="0.22" x1="259.167" y1="-40" x2="259.166" y2="1653.33" stroke="white"/>
<line opacity="0.22" x1="396.5" y1="-40" x2="396.5" y2="1653.33" stroke="white"/>
<line opacity="0.22" x1="417.833" y1="-40" x2="417.833" y2="1653.33" stroke="white"/>
<line opacity="0.22" x1="536.5" y1="-40" x2="536.5" y2="1653.33" stroke="white"/>
<line opacity="0.22" x1="635.167" y1="-40" x2="635.166" y2="1653.33" stroke="white"/>
<line opacity="0.22" x1="735.167" y1="-40" x2="735.166" y2="1653.33" stroke="white"/>
<line opacity="0.22" x1="299.167" y1="-40" x2="299.166" y2="1653.33" stroke="white"/>
<line opacity="0.22" x1="436.5" y1="-40" x2="436.5" y2="1653.33" stroke="white"/>
<line opacity="0.22" x1="457.833" y1="-40" x2="457.833" y2="1653.33" stroke="white"/>
<line opacity="0.22" x1="555.167" y1="-40" x2="555.166" y2="1653.33" stroke="white"/>
<line opacity="0.22" x1="655.167" y1="-40" x2="655.166" y2="1653.33" stroke="white"/>
<line opacity="0.22" x1="753.833" y1="-40" x2="753.833" y2="1653.33" stroke="white"/>
<line opacity="0.22" x1="853.833" y1="-40" x2="853.833" y2="1653.33" stroke="white"/>
<line opacity="0.4" x1="476.5" y1="-40" x2="476.5" y2="1653.33" stroke="white"/>
<line opacity="0.4" x1="576.5" y1="-40" x2="576.5" y2="1653.33" stroke="white"/>
<line opacity="0.4" x1="676.5" y1="-40" x2="676.5" y2="1653.33" stroke="white"/>
<line opacity="0.7" x1="775.167" y1="-40" x2="775.166" y2="1653.33" stroke="white"/>
<line opacity="0.4" x1="872.5" y1="-40" x2="872.5" y2="1653.33" stroke="white"/>
<line opacity="0.4" x1="972.5" y1="-40" x2="972.5" y2="1653.33" stroke="white"/>
<line opacity="0.22" x1="595.167" y1="-40" x2="595.166" y2="1653.33" stroke="white"/>
<line opacity="0.22" x1="695.167" y1="-40" x2="695.166" y2="1653.33" stroke="white"/>
<line opacity="0.22" x1="795.167" y1="-40" x2="795.166" y2="1653.33" stroke="white"/>
<line opacity="0.22" x1="893.833" y1="-40" x2="893.833" y2="1653.33" stroke="white"/>
<line opacity="0.22" x1="993.833" y1="-40" x2="993.833" y2="1653.33" stroke="white"/>
<line opacity="0.22" x1="1091.17" y1="-40" x2="1091.17" y2="1653.33" stroke="white"/>
<line opacity="0.22" x1="713.833" y1="-40" x2="713.833" y2="1653.33" stroke="white"/>
<line opacity="0.22" x1="813.833" y1="-40" x2="813.833" y2="1653.33" stroke="white"/>
<line opacity="0.22" x1="912.5" y1="-40" x2="912.5" y2="1653.33" stroke="white"/>
<line opacity="0.22" x1="1012.5" y1="-40" x2="1012.5" y2="1653.33" stroke="white"/>
<line opacity="0.22" x1="1112.5" y1="-40" x2="1112.5" y2="1653.33" stroke="white"/>
<line opacity="0.22" x1="1211.17" y1="-40" x2="1211.17" y2="1653.33" stroke="white"/>
<line opacity="0.22" x1="835.167" y1="-40" x2="835.166" y2="1653.33" stroke="white"/>
<line opacity="0.22" x1="932.5" y1="-40" x2="932.5" y2="1653.33" stroke="white"/>
<line opacity="0.22" x1="1031.17" y1="-40" x2="1031.17" y2="1653.33" stroke="white"/>
<line opacity="0.22" x1="1131.17" y1="-40" x2="1131.17" y2="1653.33" stroke="white"/>
<line opacity="0.22" x1="1231.17" y1="-40" x2="1231.17" y2="1653.33" stroke="white"/>
<line opacity="0.22" x1="1329.83" y1="-40" x2="1329.83" y2="1653.33" stroke="white"/>
<line opacity="0.22" x1="953.833" y1="-40" x2="953.833" y2="1653.33" stroke="white"/>
<line opacity="0.22" x1="1052.5" y1="-40" x2="1052.5" y2="1653.33" stroke="white"/>
<line opacity="0.22" x1="1152.5" y1="-40" x2="1152.5" y2="1653.33" stroke="white"/>
<line opacity="0.22" x1="1249.83" y1="-40" x2="1249.83" y2="1653.33" stroke="white"/>
<line opacity="0.22" x1="1349.83" y1="-40" x2="1349.83" y2="1653.33" stroke="white"/>
<line opacity="0.22" x1="1448.5" y1="-40" x2="1448.5" y2="1653.33" stroke="white"/>
<line opacity="0.4" x1="1072.5" y1="-40" x2="1072.5" y2="1653.33" stroke="white"/>
<line opacity="0.7" x1="1171.17" y1="-40" x2="1171.17" y2="1653.33" stroke="white"/>
<line opacity="0.4" x1="1271.17" y1="-40" x2="1271.17" y2="1653.33" stroke="white"/>
<line opacity="0.4" x1="1371.17" y1="-40" x2="1371.17" y2="1653.33" stroke="white"/>
<line opacity="0.4" x1="1469.83" y1="-40" x2="1469.83" y2="1653.33" stroke="white"/>
<line opacity="0.7" x1="1567.17" y1="-40" x2="1567.17" y2="1653.33" stroke="white"/>
<line opacity="0.22" x1="1189.83" y1="-40" x2="1189.83" y2="1653.33" stroke="white"/>
<line opacity="0.22" x1="1289.83" y1="-40" x2="1289.83" y2="1653.33" stroke="white"/>
<line opacity="0.22" x1="1389.83" y1="-40" x2="1389.83" y2="1653.33" stroke="white"/>
<line opacity="0.22" x1="1488.5" y1="-40" x2="1488.5" y2="1653.33" stroke="white"/>
<line opacity="0.22" x1="1588.5" y1="-40" x2="1588.5" y2="1653.33" stroke="white"/>
<line opacity="0.22" x1="1688.5" y1="-40" x2="1688.5" y2="1653.33" stroke="white"/>
<line opacity="0.22" x1="1311.17" y1="-40" x2="1311.17" y2="1653.33" stroke="white"/>
<line opacity="0.22" x1="1408.5" y1="-40" x2="1408.5" y2="1653.33" stroke="white"/>
<line opacity="0.22" x1="1508.5" y1="-40" x2="1508.5" y2="1653.33" stroke="white"/>
<line opacity="0.22" x1="1607.17" y1="-40" x2="1607.17" y2="1653.33" stroke="white"/>
<line opacity="0.22" x1="1707.17" y1="-40" x2="1707.17" y2="1653.33" stroke="white"/>
<line opacity="0.22" x1="1807.17" y1="-40" x2="1807.17" y2="1653.33" stroke="white"/>
<line opacity="0.22" x1="1429.83" y1="-40" x2="1429.83" y2="1653.33" stroke="white"/>
<line opacity="0.22" x1="1529.83" y1="-40" x2="1529.83" y2="1653.33" stroke="white"/>
<line opacity="0.22" x1="1628.5" y1="-40" x2="1628.5" y2="1653.33" stroke="white"/>
<line opacity="0.22" x1="1725.83" y1="-40" x2="1725.83" y2="1653.33" stroke="white"/>
<line opacity="0.22" x1="1825.83" y1="-40" x2="1825.83" y2="1653.33" stroke="white"/>
<line opacity="0.22" x1="1925.83" y1="-40" x2="1925.83" y2="1653.33" stroke="white"/>
<line opacity="0.22" x1="1548.5" y1="-40" x2="1548.5" y2="1653.33" stroke="white"/>
<line opacity="0.22" x1="1648.5" y1="-40" x2="1648.5" y2="1653.33" stroke="white"/>
<line opacity="0.22" x1="1747.17" y1="-40" x2="1747.17" y2="1653.33" stroke="white"/>
<line opacity="0.22" x1="1847.17" y1="-40" x2="1847.17" y2="1653.33" stroke="white"/>
<line opacity="0.22" x1="1944.5" y1="-40" x2="1944.5" y2="1653.33" stroke="white"/>
<line opacity="0.22" x1="2043.17" y1="-40" x2="2043.17" y2="1653.33" stroke="white"/>
<line opacity="0.4" x1="1667.17" y1="-40" x2="1667.17" y2="1653.33" stroke="white"/>
<line opacity="0.4" x1="1765.83" y1="-40" x2="1765.83" y2="1653.33" stroke="white"/>
<line opacity="0.4" x1="1865.83" y1="-40" x2="1865.83" y2="1653.33" stroke="white"/>
<line opacity="0.7" x1="1965.83" y1="-40" x2="1965.83" y2="1653.33" stroke="white"/>
<line opacity="0.4" x1="2064.5" y1="-40" x2="2064.5" y2="1653.33" stroke="white"/>
<line opacity="0.4" x1="2164.5" y1="-40" x2="2164.5" y2="1653.33" stroke="white"/>
<line opacity="0.22" x1="1785.83" y1="-40" x2="1785.83" y2="1653.33" stroke="white"/>
<line opacity="0.22" x1="1884.5" y1="-40" x2="1884.5" y2="1653.33" stroke="white"/>
<line opacity="0.22" x1="1984.5" y1="-40" x2="1984.5" y2="1653.33" stroke="white"/>
<line opacity="0.22" x1="2084.5" y1="-40" x2="2084.5" y2="1653.33" stroke="white"/>
<line opacity="0.22" x1="2183.17" y1="-40" x2="2183.17" y2="1653.33" stroke="white"/>
<line opacity="0.22" x1="2283.17" y1="-40" x2="2283.17" y2="1653.33" stroke="white"/>
<line opacity="0.22" x1="1905.83" y1="-40" x2="1905.83" y2="1653.33" stroke="white"/>
<line opacity="0.22" x1="2005.83" y1="-40" x2="2005.83" y2="1653.33" stroke="white"/>
<line opacity="0.22" x1="2103.17" y1="-40" x2="2103.17" y2="1653.33" stroke="white"/>
<line opacity="0.22" x1="2203.17" y1="-40" x2="2203.17" y2="1653.33" stroke="white"/>
<line opacity="0.22" x1="2301.83" y1="-40" x2="2301.83" y2="1653.33" stroke="white"/>
<line opacity="0.22" x1="2383.17" y1="-40" x2="2383.17" y2="1653.33" stroke="white"/>
<line opacity="0.22" x1="2024.5" y1="-40" x2="2024.5" y2="1653.33" stroke="white"/>
<line opacity="0.22" x1="2124.5" y1="-40" x2="2124.5" y2="1653.33" stroke="white"/>
<line opacity="0.22" x1="2224.5" y1="-40" x2="2224.5" y2="1653.33" stroke="white"/>
<line opacity="0.22" x1="2323.17" y1="-40" x2="2323.17" y2="1653.33" stroke="white"/>
<line opacity="0.22" x1="2401.83" y1="-40" x2="2401.83" y2="1653.33" stroke="white"/>
<line opacity="0.4" x1="2460.5" y1="-40" x2="2460.5" y2="1653.33" stroke="white"/>
<line opacity="0.22" x1="2143.17" y1="-40" x2="2143.17" y2="1653.33" stroke="white"/>
<line opacity="0.22" x1="2243.17" y1="-40" x2="2243.17" y2="1653.33" stroke="white"/>
<line opacity="0.22" x1="2341.83" y1="-40" x2="2341.83" y2="1653.33" stroke="white"/>
<line opacity="0.22" x1="2420.5" y1="-40" x2="2420.5" y2="1653.33" stroke="white"/>
<line opacity="0.22" x1="2481.83" y1="-40" x2="2481.83" y2="1653.33" stroke="white"/>
<line opacity="0.22" x1="2520.5" y1="-40" x2="2520.5" y2="1653.33" stroke="white"/>
<line opacity="0.4" x1="2261.83" y1="-40" x2="2261.83" y2="1653.33" stroke="white"/>
<line opacity="0.7" x1="2361.83" y1="-40" x2="2361.83" y2="1653.33" stroke="white"/>
<line opacity="0.22" x1="2441.83" y1="-40" x2="2441.83" y2="1653.33" stroke="white"/>
<line opacity="0.22" x1="2501.83" y1="-40" x2="2501.83" y2="1653.33" stroke="white"/>
<line opacity="0.22" x1="2541.83" y1="-40" x2="2541.83" y2="1653.33" stroke="white"/>
<line opacity="0.4" x1="2560.5" y1="-40" x2="2560.5" y2="1653.33" stroke="white"/>
</g>
<defs>
<clipPath id="clip0_303_2">
<rect width="2560" height="1440" fill="white"/>
</clipPath>
</defs>
</svg>
