<?xml version="1.0" encoding="UTF-8"?>
<svg width="20" height="11" fill="none" version="1.1" viewBox="0 0 20 11" xmlns="http://www.w3.org/2000/svg">
 <g opacity=".5">
  <path d="m13.61 0.33378 2.439 4.7787-2.3441 4.6461 0.1797 2.1e-4 1.7837-0.70881 1.4656-2.2705 1.0438 2.1998 0.1563 0.01332 0.6665-0.61303-0.8434-3.2732 1.3138-3.4893-1.0585-0.47892-0.169-0.00512-1.1095 2.306-1.348-2.3967-2.0189-0.70881-0.157 2.87e-4z" fill="#808080"/>
  <path d="m13.767 0.33398 2.439 4.7787-2.3441 4.6461 2.2845-0.39808 1.1445-2.5811 1.0438 2.1998 1.6087-0.28032-1.6293-3.5926 1.6861-3.6974-1.5998-0.27594-1.1095 2.306-1.2241-2.7085-2.2998-0.39669z" fill="#fff"/>
  <path d="m17.214 6.9526-0.2129-0.7758 0.2875 0.60757-0.0746 0.16823z" fill="#808080"/>
  <path d="m17.491 3.897-0.2092-0.47704 0.0088 0.01933 0.0758-0.1576 7e-3 0.00228 0.1176 0.61303z" fill="#868686" opacity=".502"/>
  <path d="m6.8284 9.7984v-9.387l-0.19601-0.038314-1.5877 1.1494-2.0261 2.9502-1.5046-3.2158-0.17398-0.00263-0.49002 3.5249 0.35282 4.1188 0.1689-0.01113v-3.746l1.4972 2.646h0.19601l1.8611-2.6745 0.54981 3.5366 1.1761 1.1686 0.17641-0.01916z" fill="#808080"/>
  <path d="m6.6626 9.8147v-9.4422l-2.0269 0.40657-1.7741 3.6934-1.5046-3.2158-1.3571 0.23486v7.1658l1.2148 0.22931v-3.746l1.5952 2.646h0.098l1.8611-2.6745v4.3642l1.8935 0.3383z" fill="#fff"/>
  <path d="m5.2012 4.4526-0.43122 0.88123-9.6e-4 9.3e-4v-0.22331l-0.31981 0.45958 0.75199-1.1184z" fill="#808080"/>
  <path d="m1.2146 5.1502v0.3049l-0.1101-0.46632 0.1101 0.16142z" fill="#868686" opacity=".502"/>
  <path d="m9.6899 10.314v-4.3103l2.3326-0.47893 0.6153-1.3606h-2.9495v-1.8187l3.1966-0.24985 0.5094-1.7624h-5.9588l2.1172 10 0.1372-0.0192z" fill="#808080"/>
  <path d="m9.6881 2.3455v0.2669l-0.9-0.2677h0.90165v6.9e-4l-0.00165 1.1e-4z" fill="#0D0D0D" opacity=".302"/>
  <path d="m8.9453 6.0039h0.74484v0.17241l-0.74484-0.17241z" fill="#000" opacity=".302"/>
  <path d="m9.5722 10.334v-4.3295h2.8618l0.3605-1.8395h-3.2239v-1.8187h3.5492l0.3528-2.0123h-6.1547l2.4e-4 9.5977 2.2541 0.4023z" fill="#fff"/>
  <path d="m9.5726 6.0039v0.15325l-0.62724-0.15325h0.62724z" fill="#BFBFBF"/>
  <path d="m9.5705 2.3455v0.2286l-0.78239-0.2294h0.78404v8e-4h-0.00165z" fill="#BFBFBF"/>
 </g>
</svg>
