<?xml version="1.0" encoding="UTF-8"?>
<svg width="24" height="22" fill="none" version="1.1" viewBox="0 0 24 22" xmlns="http://www.w3.org/2000/svg">
 <path d="m22.982 21.928c-2.1897-3.4381-4.3795-6.8762-6.6082-10.365 1.3625-0.1221 2.6375-0.2442 4-0.3662-2.0827-1.9428-4.0973-3.8246-6.1703-5.7573 1.0317-0.42722 1.9951-0.81375 3.0073-1.241-2.472-1.6885-12.039-6.2455-15.027-3.1431-2.9878 3.1024 0.40875 11.942 2.1995 14.2l0.76885-3.2549s2.8613 4.4959 4.3211 6.7846c0.19465-1.5258 0.37956-2.9092 0.56443-4.3536 4.3309 2.5328 12.915 7.5577 12.915 7.5577 0.039 0.0305 0.0681-0.0102 0.0292-0.061zm-14.355-10.67-0.3309 3.0923-3.4841-5.269-0.74938 1.7088s-0.86617-2.3293-1.1387-4.2111c-0.12652-0.89512-0.04866-1.6072 0.19464-2.4819 0.29197-1.0884 0.99269-1.6885 2.0438-1.8614 1.0997-0.18309 1.9172-0.12206 3.5036 0.30516 1.5864 0.42721 3.8637 1.8411 3.8637 1.8411l-1.8589 0.73237 4.9829 4.2518-3.1143 0.28481 3.2409 5.4216-7.1532-3.8145z" fill="#000"/>
</svg>
