<?xml version="1.0" encoding="UTF-8"?>
<svg width="20" height="22" fill="none" version="1.1" viewBox="0 0 20 22" xmlns="http://www.w3.org/2000/svg">
 <g fill="#000">
  <rect x="1" width="18" height="3" rx="1.5"/>
  <rect transform="rotate(90 12 1)" x="12" y="1" width="7" height="4" rx="2"/>
  <rect y="20" width="20" height="2" rx="1"/>
  <rect y="6" width="20" height="2" rx="1"/>
  <rect transform="rotate(90 3 6)" x="3" y="6" width="16" height="2" rx="1"/>
  <path d="m12.969 12.97c-0.028-0.0771-0.0736-0.1432-0.1314-0.1909-0.0579-0.0477-0.1257-0.0751-0.196-0.0791h-1.8923l0.6469-2.1325c0.0152-0.0668 0.0174-0.1368 0.0063-0.2047s-0.0352-0.1318-0.0703-0.1868c-0.0354-0.055-0.081-0.0995-0.1332-0.13-0.0523-0.0304-0.1097-0.04596-0.1678-0.0454h-2.6338c-0.08495-0.00352-0.16838 0.0275-0.2367 0.088-0.06832 0.0604-0.11752 0.1467-0.13957 0.2449l-1.0084 4.4991c-0.01534 0.068-0.01713 0.1393-0.00523 0.2083 0.01191 0.0689 0.03717 0.1335 0.07377 0.1887 0.0366 0.0551 0.08351 0.0992 0.13695 0.1287 0.05345 0.0296 0.11194 0.0437 0.17078 0.0412h1.4486l-0.68104 3.0325c-0.02231 0.0977-0.01636 0.2017 0.0169 0.2949 0.03325 0.0932 0.09186 0.1703 0.16633 0.2187 0.07446 0.0485 0.16042 0.0654 0.24395 0.0481 0.08352-0.0173 0.15972-0.0678 0.21624-0.1433l4.1013-5.399c0.0488-0.0639 0.0812-0.1434 0.0932-0.2288s0.0032-0.1731-0.0255-0.2526z"/>
  <rect transform="rotate(90 19 6)" x="19" y="6" width="16" height="2" rx="1"/>
 </g>
</svg>
