<?xml version="1.0" encoding="UTF-8"?>
<svg width="24" height="22" fill="none" version="1.1" viewBox="0 0 24 22" xmlns="http://www.w3.org/2000/svg">
 <path d="m2 0c-1.1046 0-2 0.89543-2 2v18c0 1.1046 0.89543 2 2 2h20c1.1046 0 2-0.8954 2-2v-18c0-1.1046-0.8954-2-2-2h-20zm17.5 16c-0.8284 0-1.5 0.6716-1.5 1.5v1c0 0.8284 0.6716 1.5 1.5 1.5s1.5-0.6716 1.5-1.5v-1c0-0.8284-0.6716-1.5-1.5-1.5zm-6.5 1.5c0-0.8284 0.6716-1.5 1.5-1.5s1.5 0.6716 1.5 1.5v1c0 0.8284-0.6716 1.5-1.5 1.5s-1.5-0.6716-1.5-1.5v-1zm-3.5-1.5c-0.82843 0-1.5 0.6716-1.5 1.5v1c0 0.8284 0.67157 1.5 1.5 1.5 0.8284 0 1.5-0.6716 1.5-1.5v-1c0-0.8284-0.6716-1.5-1.5-1.5zm-6.5 1.5c0-0.8284 0.67157-1.5 1.5-1.5s1.5 0.6716 1.5 1.5v1c0 0.8284-0.67157 1.5-1.5 1.5s-1.5-0.6716-1.5-1.5v-1zm0-15.5c-0.55228 0-1 0.44772-1 1v10c0 0.5523 0.44772 1 1 1h18c0.5523 0 1-0.4477 1-1v-10c0-0.55228-0.4477-1-1-1h-18z" clip-rule="evenodd" fill="#000" fill-rule="evenodd"/>
</svg>
