<?xml version="1.0" encoding="UTF-8"?>
<svg width="24" height="24" fill="none" version="1.1" viewBox="0 0 24 24" xmlns="http://www.w3.org/2000/svg">
 <g fill="#000">
  <path d="m6.6997 3.7713c1.7843-2.246 4.7362-3.7713 5.3116-3.7713 0.8361 0 6.6884 3.2198 6.6884 7.1916 0 3.1592-1.8946 5.8427-4.5287 6.8084 0.1228-0.1857 0.2386-0.3793 0.3468-0.5807 0.162-0.3017 0.3014-0.6109 0.4187-0.9251 1.6812-1.0745 2.8079-3.0471 2.8079-5.3027 0-3.4044-5.0162-6.1642-5.7328-6.1642-0.3966 0-2.11 0.84523-3.5613 2.1772-0.59454 0.13214-1.1867 0.3314-1.7506 0.56685z"/>
  <path d="m17.299 20.23c-1.7843 2.246-4.736 3.7714-5.3115 3.7714-0.836 0-6.6881-3.2199-6.6881-7.1917 0-3.1593 1.8945-5.8428 4.5286-6.8086-0.12287 0.1857-0.23869 0.3793-0.34681 0.5807-0.16198 0.3017-0.30132 0.6107-0.41859 0.9249-1.6814 1.0744-2.8083 3.0472-2.8083 5.303 0 3.4045 5.0161 6.1643 5.7327 6.1643 0.3966 0 2.1099-0.8452 3.5611-2.1771 0.5946-0.1321 1.1869-0.3314 1.7509-0.5669z" clip-rule="evenodd" fill-rule="evenodd"/>
  <path d="m21.778 11.557c1.0445 2.6716 0.879 5.9901 0.5896 6.4876-0.4203 0.7227-6.1458 4.1628-9.5792 2.166-2.7309-1.5883-4.098-4.5752-3.6085-7.3378 0.09874 0.1996 0.20788 0.3971 0.3276 0.5918 0.17938 0.2917 0.37652 0.5676 0.58921 0.827 0.0835 1.9935 1.2222 3.9592 3.172 5.0933 2.9429 1.7115 7.8505-1.2372 8.2108-1.8566 0.1994-0.3429 0.3302-2.2489-0.0916-4.1731 0.1847-0.5803 0.3102-1.1924 0.3901-1.7982z"/>
  <path d="m2.222 12.444c-1.0445-2.6716-0.87905-5.99-0.58975-6.4875 0.42031-0.72268 6.1458-4.1627 9.5792-2.1658 2.731 1.5884 4.0982 4.5752 3.6088 7.3376-0.0988-0.1995-0.2079-0.397-0.3277-0.5917-0.1793-0.2917-0.3764-0.56751-0.589-0.82683-0.0834-1.9936-1.2222-3.9596-3.1722-5.0937-2.9429-1.7116-7.8505 1.2369-8.2108 1.8564-0.19938 0.3428-0.33012 2.2488 0.09162 4.1728-0.18473 0.5805-0.31021 1.1927-0.3902 1.7986z" clip-rule="evenodd" fill-rule="evenodd"/>
  <path d="m16.512 3.3141c2.8355 0.43395 5.625 2.2392 5.9107 2.7387 0.415 0.72575 0.5253 7.4044-2.9225 9.3761-2.7425 1.5684-6.0125 1.2559-8.1585-0.5514 0.2222 0.0145 0.4478 0.0189 0.6763 0.0128 0.3424-0.0091 0.6799-0.0416 1.0109-0.0958 1.7674 0.9261 4.0391 0.9249 5.9971-0.1948 2.9553-1.6901 2.8608-7.4146 2.505-8.0367-0.1969-0.34426-1.7812-1.412-3.6579-2.0106-0.4098-0.4505-0.8767-0.86561-1.3611-1.2382z"/>
  <path d="m7.4878 20.686c-2.8355-0.4339-5.625-2.2391-5.9107-2.7386-0.41503-0.7257-0.52516-7.4042 2.9227-9.376 2.7425-1.5684 6.0125-1.256 8.1585 0.55118-0.2222-0.01448-0.4478-0.01889-0.6763-0.01278-0.3423 0.00915-0.6797 0.04162-1.0106 0.09577-1.7674-0.92621-4.0394-0.92504-5.9976 0.1948-2.9553 1.6901-2.8609 7.4145-2.5052 8.0366 0.19687 0.3442 1.7811 1.4119 3.6577 2.0105 0.40991 0.4506 0.87694 0.8657 1.3614 1.2385z" clip-rule="evenodd" fill-rule="evenodd"/>
  <path d="m12 15c1.6569 0 3-1.3431 3-3s-1.3431-3-3-3-3 1.3431-3 3 1.3431 3 3 3zm0-1.5c0.8284 0 1.5-0.6716 1.5-1.5s-0.6716-1.5-1.5-1.5-1.5 0.6716-1.5 1.5 0.6716 1.5 1.5 1.5z" clip-rule="evenodd" fill-rule="evenodd"/>
 </g>
</svg>
