<?xml version="1.0" encoding="UTF-8"?>
<svg width="410" height="248" fill="none" version="1.1" viewBox="0 0 410 248" xmlns="http://www.w3.org/2000/svg">
 <g clip-path="url(#clip0)">
  <g opacity=".1">
   <path d="m398.38 203.5v-158.99h8.884v158.99h-8.884zm-193.38 44.504-193.38-38.293v-5.871h-8.8833v-159.33h8.8833v-6.2115l193.38-38.293 193.38 38.293v8.9317l-193.38-38.293-193.38 38.292v153.55l193.38 38.292 193.38-38.292v8.931l-193.38 38.293z" fill="#868686"/>
   <path d="m401.12 44.505h8.883v158.99h-8.883v-158.99z" fill="#fff"/>
   <path d="M0 44.5049H8.88334V203.836H0V44.5049Z" fill="#fff"/>
   <g fill="#868686">
    <path d="M0 45.1831H8.88334V47.2215H0V45.1831Z"/>
    <path d="M0 200.779H8.88334V202.818H0V200.779Z"/>
    <path d="m401.12 45.183h8.883v2.0384h-8.883v-2.0384z"/>
    <path d="m401.12 200.78h8.883v2.039h-8.883v-2.039z"/>
   </g>
   <g fill="#fff">
    <path d="M0 38.2926L205 0V8.93174L0 47.2243V38.2926Z"/>
    <path d="M410 38.2926L205 0V8.93174L410 47.2243V38.2926Z"/>
    <path d="m0 209.71 205 38.293v-8.932l-205-38.293v8.932z"/>
    <path d="m410 209.71-205 38.293v-8.932l205-38.293v8.932z"/>
   </g>
   <path d="m268.89 40.771 42.514 84.744-40.86 82.393 3.132 3e-3 31.092-12.57 25.548-40.265 18.193 39.01 2.726 0.236 11.617-10.871-14.701-58.046 22.901-61.877-18.45-8.4932-2.946-0.0907-19.34 40.894-23.498-42.502-35.192-12.57-2.736 0.0051z" fill="#808080"/>
   <path d="m271.62 40.772 42.515 84.743-40.861 82.393 39.822-7.059 19.95-45.772 18.194 39.01 28.042-4.971-28.401-63.71 29.39-65.568-27.885-4.8934-19.34 40.894-21.337-48.032-40.089-7.0347z" fill="#fff"/>
   <path d="m331.71 158.14-3.712-13.758 5.013 10.774-1.301 2.984z" fill="#808080"/>
   <path d="m336.54 103.95-3.646-8.4594 0.152 0.3428 1.321-2.7949 0.123 0.0404 2.05 10.871z" fill="#868686" opacity=".502"/>
   <path d="m150.67 208.59v-166.47l-3.416-0.6794-27.675 20.384-35.317 52.318-26.226-57.028-3.0326-0.0465-8.5417 62.509 6.15 73.041 2.9441-0.197v-66.43l26.098 46.923h3.4166l32.442-47.428 9.583 62.716 20.5 20.723 3.075-0.34z" fill="#808080"/>
   <path d="m147.79 208.88v-167.44l-35.332 7.21-30.924 65.498-26.226-57.028-23.655 4.165v127.07l21.175 4.067v-66.43l27.806 46.923h1.7084l32.442-47.428v77.393l33.006 6z" fill="#fff"/>
   <path d="m122.32 113.81-7.516 15.627-0.017 0.017v-3.96l-5.575 8.15 13.108-19.834z" fill="#808080"/>
   <path d="m52.828 126.18v5.407l-1.9191-8.269 1.9191 2.862z" fill="#868686" opacity=".502"/>
   <path d="m200.56 217.76v-76.438l40.658-8.493 10.726-24.129h-51.413v-32.252l55.721-4.4307 8.879-31.254h-103.87l36.904 177.34 2.392-0.34z" fill="#808080"/>
   <path d="m200.53 76.452v4.733l-15.688-4.7473h15.717v0.0122l-0.029 0.0021z" fill="#0D0D0D" opacity=".302"/>
   <path d="m187.57 141.32h12.983v3.058l-12.983-3.058z" fill="#000" opacity=".302"/>
   <path d="m198.51 218.1v-76.778h49.883l6.285-32.622h-56.197v-32.252h61.867l6.15-35.685h-107.28l5e-3 170.2 39.291 7.135z" fill="#fff"/>
   <path d="m198.51 141.32v2.718l-10.933-2.718h10.933z" fill="#BFBFBF"/>
   <path d="m198.48 76.452v4.0539l-13.638-4.0682h13.667v0.0143h-0.029z" fill="#BFBFBF"/>
  </g>
 </g>
 <defs>
  <clipPath id="clip0">
   <rect width="410" height="248" fill="#fff"/>
  </clipPath>
 </defs>
</svg>
