<?xml version="1.0" encoding="UTF-8"?>
<svg width="38" height="48" fill="none" version="1.1" viewBox="0 0 38 48" xmlns="http://www.w3.org/2000/svg">
 <path d="m23-3.6639e-9 15 15v28.268c0 1.277-0.4815 2.4038-1.4445 3.3803-0.9629 0.9014-2.074 1.3521-3.3333 1.3521h-28.444c-1.2593 0-2.3704-0.4507-3.3333-1.3521-0.96296-0.9765-1.4444-2.1033-1.4444-3.3803l0.11111-38.535c0-1.277 0.44444-2.3662 1.3333-3.2676 0.96297-0.97653 2.0741-1.4648 3.3333-1.4648l18.222-4e-14z" fill="url(#paint0_linear)"/>
 <path d="m23-3.9551e-9 15 14.688v27.679c0 1.2504-0.4815 2.3537-1.4444 3.3099-0.963 0.8826-2.0741 1.3239-3.3334 1.3239h-28.444c-1.2593 0-2.3704-0.4413-3.3333-1.3239-0.96296-0.9562-1.4444-2.0595-1.4444-3.3099l0.11111-37.732c0-1.2504 0.44444-2.3169 1.3333-3.1995 0.96297-0.95618 2.0741-1.4343 3.3333-1.4343l18.222-2.9115e-10z" fill="url(#paint1_linear)"/>
 <path d="m23 0 15 15h-15v-15z" fill="#DBE4EF"/>
 <path d="m38 30-15-15h15v15z" fill="url(#paint2_linear)" fill-opacity=".1"/>
 <g fill="#BFBFBF">
  <path d="m29.377 40.667v-8.3342h0.4767v8.3342h-0.4767zm-10.377 2.3329-10.377-2.0073v-0.3078h-0.47666v-8.352h0.47666v-0.3256l10.377-2.0073 10.377 2.0073v0.4682l-10.377-2.0073-10.377 2.0072v8.0491l10.377 2.0073 10.377-2.0073v0.4682l-10.377 2.0073z"/>
  <path d="M29.5233 32.3329H30V40.6671H29.5233V32.3329Z"/>
  <path d="M8 32.3329H8.47667V40.6849H8V32.3329Z"/>
  <path d="M8 32.3685H8.47667V32.4753H8V32.3685Z"/>
  <path d="M8 40.5246H8.47667V40.6315H8V40.5246Z"/>
  <path d="M29.5233 32.3685H30V32.4753H29.5233V32.3685Z"/>
  <path d="M29.5233 40.5246H30V40.6315H29.5233V40.5246Z"/>
  <path d="m8 32.007 11-2.0073v0.4682l-11 2.0071v-0.468z"/>
  <path d="m30 32.007-11-2.0073v0.4682l11 2.0071-1e-4 -0.468z"/>
  <path d="m8 40.993 11 2.0073v-0.4682l-11-2.0072v0.4681z"/>
  <path d="m30 40.993-11 2.0073v-0.4682l11-2.0072-1e-4 0.4681z"/>
  <path d="m22.428 32.137 2.2812 4.4422-2.1925 4.319 0.1681 2e-4 1.6683-0.6589 1.3709-2.1107 0.9762 2.0449 0.1463 0.0124 0.6233-0.5699-0.7888-3.0427 1.2288-3.2436-0.99-0.4452-0.1581-0.0048-1.0377 2.1437-1.2609-2.2279-1.8883-0.659-0.1468 3e-4z"/>
  <path d="m22.575 32.137 2.2812 4.4426-2.1925 4.319 2.1368-0.37 1.0705-2.3994 0.9762 2.0449 1.5047-0.2606-1.5239-3.3396 1.577-3.437-1.4963-0.2565-1.0377 2.1436-1.1449-2.5178-2.1511-0.3692z"/>
  <path d="m25.799 38.29-0.1992-0.7212 0.2689 0.5648-0.0697 0.1564z"/>
  <path d="m26.058 35.449-0.1956-0.4434 0.0082 0.018 0.0709-0.1466 0.0065 0.0021 0.11 0.5699z"/>
  <path d="m16.085 40.934v-8.726l-0.1833-0.0357-1.485 1.0685-1.895 2.7425-1.4073-2.9893-0.1627-0.0025-0.4583 3.2767 0.33 3.8288 0.158-0.0103v-3.4823l1.4003 2.4597h0.1833l1.7408-2.4861 0.5142 3.2875 1.1 1.0863 0.165-0.0178z"/>
  <path d="m15.93 40.95v-8.7773l-1.8959 0.3779-1.6593 3.4334-1.4073-2.9894-1.2692 0.2183v6.6612l1.1362 0.2132v-3.4822l1.492 2.4597h0.0916l1.7408-2.4862v4.0569l1.7711 0.3145z"/>
  <path d="m14.563 35.966-0.4033 0.8192-9e-4 -0.2067-0.2991 0.4272 0.7033-1.0397z"/>
  <path d="m10.835 36.614v0.2835l-0.1029-0.4335 0.1029 0.15z"/>
  <path d="m18.762 41.415v-4.0068l2.1816-0.4452 0.5755-1.2648h-2.7587v-1.6907l2.9899-0.2322 0.4764-1.6384h-5.5733l1.9802 9.2959 0.1284-0.0178z"/>
  <path d="m18.76 34.008-2e-4 0.2481-0.8417-0.2489h0.8433l-0.0014 8e-4z"/>
  <path d="m18.065 37.408 0.6967 1e-4 -1e-4 0.1602-0.6966-0.1603z"/>
  <path d="m18.652 41.433v-4.0246h2.6767l0.3372-1.71h-3.0154v-1.6907h3.3196l0.33-1.8706h-5.7566l2e-4 8.9219 2.1083 0.374z"/>
  <path d="m18.652 37.408-1e-4 0.1424-0.5866-0.1425 0.5867 1e-4z"/>
  <path d="m18.65 34.008-3e-4 0.2125-0.7317-0.2133 0.732 8e-4z"/>
 </g>
 <defs>
  <linearGradient id="paint0_linear" x1="19" x2="19" y1="-1.457e-8" y2="48" gradientUnits="userSpaceOnUse">
   <stop stop-color="#fff" offset="0"/>
   <stop stop-color="#CED9E7" offset="1"/>
  </linearGradient>
  <linearGradient id="paint1_linear" x1="19" x2="19" y1="-1.457e-8" y2="47" gradientUnits="userSpaceOnUse">
   <stop stop-color="#fff" offset="0"/>
   <stop stop-color="#E9EFF5" offset="1"/>
  </linearGradient>
  <linearGradient id="paint2_linear" x1="38" x2="38" y1="30.5" y2="15.5" gradientUnits="userSpaceOnUse">
   <stop stop-color="#fff" offset=".44271"/>
   <stop stop-opacity=".5" offset="1"/>
  </linearGradient>
 </defs>
</svg>
