<?xml version="1.0" encoding="UTF-8"?>
<svg width="26" height="26" fill="none" version="1.1" viewBox="0 0 26 26" xmlns="http://www.w3.org/2000/svg">
 <g transform="translate(-5,-5)" fill="#000" opacity=".5">
  <path d="m8 5c-1.6568 0-3 1.3432-3 3v20c0 1.6569 1.3432 3 3 3h20c1.6569 0 3-1.3431 3-3v-20c0-1.6568-1.3431-3-3-3zm6.8298 7.9286v6.5309c-0.3766-0.2105-0.8107-0.3405-1.2766-0.3405-1.4106 0-2.5532 1.1081-2.5532 2.4762s1.1426 2.4762 2.5532 2.4762 2.5532-1.1081 2.5532-2.4762v-6.1904h5.6169v4.0547c-0.3766-0.2105-0.8106-0.3405-1.2766-0.3405-1.4106 0-2.5531 1.1081-2.5531 2.4762s1.1425 2.4762 2.5531 2.4762c1.4107 0 2.5532-1.1081 2.5532-2.4762v-8.6666h-1.2766z" clip-rule="evenodd" fill="#000" fill-rule="evenodd"/>
 </g>
</svg>
