<svg width="2560" height="1440" viewBox="0 0 2560 1440" fill="none" xmlns="http://www.w3.org/2000/svg">
<g clip-path="url(#clip0_1401_1623)">
<rect width="2560" height="1440" fill="black"/>
<path d="M1694.66 891.539V548.898H1713.71V891.539H1694.66ZM1280.26 987.437L865.889 904.937V892.254H846.845V548.898H865.889V535.54L1280.26 453L1694.66 535.54V554.783L1280.26 472.244L865.889 554.783V885.694L1280.26 968.193L1694.66 885.694V904.937L1280.26 987.437Z" fill="#333333"/>
<path d="M1700.51 548.899H1719.67V891.539H1700.63L1700.51 548.899Z" fill="#333333"/>
<path d="M841 548.899H860.045V892.255H841V548.899Z" fill="#333333"/>
<path d="M841 550.37H860.045V554.783H841V550.37Z" fill="#333333"/>
<path d="M841 885.694H860.045V890.068H841V885.694Z" fill="#333333"/>
<path d="M1700.51 550.37H1719.67V554.783H1700.63L1700.51 550.37Z" fill="#333333"/>
<path d="M1700.51 885.694H1719.67V890.068H1700.63L1700.51 885.694Z" fill="#333333"/>
<path d="M841 535.54L1280.26 453V472.244L841 554.783V535.54Z" fill="#333333"/>
<path d="M1719.67 535.54L1280.26 453V472.244L1719.67 554.783V535.54Z" fill="#333333"/>
<path d="M841 904.938L1280.26 987.437V968.194L841 885.694V904.938Z" fill="#333333"/>
<path d="M1719.67 904.938L1280.26 987.437V968.194L1719.67 885.694V904.938Z" fill="#333333"/>
<path d="M1417.19 540.868L1508.27 723.36L1420.8 900.922H1427.52L1494.12 873.847L1548.71 787.212L1587.67 871.262L1593.56 871.779L1618.45 848.361L1587.04 723.36L1636.18 589.89L1596.42 571.601H1590.14L1548.71 659.746L1498.37 568.301L1422.83 541.226L1417.19 540.868Z" fill="#333333"/>
<path d="M1423.03 540.868L1514.12 723.36L1426.65 900.922L1511.97 885.734L1554.67 787.212L1593.64 871.262L1653.71 860.567L1592.88 723.36L1656.06 581.938L1596.42 571.402L1554.67 659.746L1508.95 556.374L1423.03 540.868Z" fill="#333333"/>
<path d="M1551.81 793.812L1543.86 764.152L1554.59 787.371L1551.81 793.812Z" fill="#333333"/>
<path opacity="0.5" d="M1562.15 677.042L1554.19 658.792L1554.55 659.548L1557.38 653.504H1557.61L1562.15 677.042Z" fill="#333333"/>
<path d="M1163.88 902.513V543.771L1156.53 542.339L1097.25 586.074L1021.71 698.829L965.365 576.254H958.885L940.397 710.717L953.597 868.122L960.276 867.685V724.553L1015.94 825.66H1023.26L1092.83 723.361L1113.35 858.54L1157.08 903.229L1163.88 902.513Z" fill="#333333"/>
<path d="M1157.68 903.149V542.339L1082.14 557.845L1015.7 698.988L959.521 576.254L908.829 585.08V858.938L954.233 867.724V724.593L1013.87 825.739H1017.53L1086.99 723.361V890.347L1157.68 903.149Z" fill="#333333"/>
<path d="M1103.09 698.272L1086.99 731.948V723.36L1075.06 740.934L1103.09 698.272Z" fill="#333333"/>
<path opacity="0.5" d="M954.194 724.95V736.6L950.218 718.748L954.194 724.95Z" fill="#333333"/>
<path d="M1270.76 922.153V757.552L1357.87 739.263L1380.85 687.299H1270.72V617.721L1389.99 608.219L1409 540.868H1186.35L1265.43 923.028L1270.76 922.153Z" fill="#333333"/>
<path opacity="0.3" d="M1270.72 617.721V627.939L1237.08 617.682H1270.72V617.721Z" fill="#333333"/>
<path opacity="0.3" d="M1242.92 757.552H1270.76V764.152L1242.92 757.552Z" fill="#333333"/>
<path d="M1266.42 923.028V757.552H1373.29L1386.77 687.299H1266.42V617.721H1399.02L1412.18 540.868H1182.17V907.641L1266.42 923.028Z" fill="#333333"/>
<path d="M1266.42 757.552V763.437L1242.96 757.552H1266.42Z" fill="#333333"/>
<path d="M1266.42 617.722V626.508L1237.2 617.722H1266.42Z" fill="#333333"/>
<path opacity="0.4" d="M2560 0H-1561" stroke="white"/>
<path opacity="0.22" d="M2560 20H-697.28" stroke="white"/>
<path opacity="0.22" d="M2560 40H-697.28" stroke="white"/>
<path opacity="0.22" d="M2560 60H-697.28" stroke="white"/>
<path opacity="0.22" d="M2560 80H-697.28" stroke="white"/>
<path opacity="0.4" d="M2560 100H-697.28" stroke="white"/>
<path opacity="0.22" d="M2560 120H-697.28" stroke="white"/>
<path opacity="0.22" d="M2560 140H-697.28" stroke="white"/>
<path opacity="0.22" d="M2560 160H-697.28" stroke="white"/>
<path opacity="0.22" d="M2560 180H-697.28" stroke="white"/>
<path opacity="0.4" d="M2560 200H-697.28" stroke="white"/>
<path opacity="0.22" d="M2560 220H-697.28" stroke="white"/>
<path opacity="0.22" d="M2560 240H-697.28" stroke="white"/>
<path opacity="0.22" d="M2560 260H-697.28" stroke="white"/>
<path opacity="0.22" d="M2560 280H-697.28" stroke="white"/>
<path opacity="0.4" d="M2560 300H-697.28" stroke="white"/>
<path opacity="0.22" d="M2560 320H-697.28" stroke="white"/>
<path opacity="0.22" d="M2560 340H-697.28" stroke="white"/>
<path opacity="0.22" d="M2560 360H-697.28" stroke="white"/>
<path opacity="0.22" d="M2560 380H-697.28" stroke="white"/>
<path opacity="0.7" d="M2560 400H-697.28" stroke="white"/>
<path opacity="0.22" d="M2560 420H-697.28" stroke="white"/>
<path opacity="0.22" d="M2560 440H-697.28" stroke="white"/>
<path opacity="0.22" d="M2560 460H-697.28" stroke="white"/>
<path opacity="0.22" d="M2560 480H-697.28" stroke="white"/>
<path opacity="0.4" d="M2560 500H-697.28" stroke="white"/>
<path opacity="0.22" d="M2560 520H-697.28" stroke="white"/>
<path opacity="0.22" d="M2560 540H-697.28" stroke="white"/>
<path opacity="0.22" d="M2560 560H-697.28" stroke="white"/>
<path opacity="0.22" d="M2560 580H-697.28" stroke="white"/>
<path opacity="0.4" d="M2560 600H-697.28" stroke="white"/>
<path opacity="0.22" d="M2560 620H-697.28" stroke="white"/>
<path opacity="0.22" d="M2560 640H-697.28" stroke="white"/>
<path opacity="0.22" d="M2560 660H-697.28" stroke="white"/>
<path opacity="0.22" d="M2560 680H-697.28" stroke="white"/>
<path opacity="0.4" d="M2560 700H-697.28" stroke="white"/>
<path opacity="0.22" d="M2560 720H-697.28" stroke="white"/>
<path opacity="0.22" d="M2560 740H-697.28" stroke="white"/>
<path opacity="0.22" d="M2560 760H-697.28" stroke="white"/>
<path opacity="0.22" d="M2560 780H-697.28" stroke="white"/>
<path opacity="0.7" d="M2560 800H-697.28" stroke="white"/>
<path opacity="0.22" d="M2560 820H-697.28" stroke="white"/>
<path opacity="0.22" d="M2560 840H-697.28" stroke="white"/>
<path opacity="0.22" d="M2560 860H-697.28" stroke="white"/>
<path opacity="0.22" d="M2560 880H-697.28" stroke="white"/>
<path opacity="0.4" d="M2560 900H-697.28" stroke="white"/>
<path opacity="0.22" d="M2560 920H-697.28" stroke="white"/>
<path opacity="0.22" d="M2560 940H-697.28" stroke="white"/>
<path opacity="0.22" d="M2560 960H-697.28" stroke="white"/>
<path opacity="0.22" d="M2560 980H-697.28" stroke="white"/>
<path opacity="0.4" d="M2560 1000H-697.28" stroke="white"/>
<path opacity="0.22" d="M2560 1020H-697.28" stroke="white"/>
<path opacity="0.22" d="M2560 1040H-697.28" stroke="white"/>
<path opacity="0.22" d="M2560 1060H-697.28" stroke="white"/>
<path opacity="0.22" d="M2560 1080H-697.28" stroke="white"/>
<path opacity="0.4" d="M2560 1100H-697.28" stroke="white"/>
<path opacity="0.22" d="M2560 1120H-697.28" stroke="white"/>
<path opacity="0.22" d="M2560 1140H-697.28" stroke="white"/>
<path opacity="0.22" d="M2560 1160H-697.28" stroke="white"/>
<path opacity="0.22" d="M2560 1180H-697.28" stroke="white"/>
<path opacity="0.7" d="M2560 1200H-697.28" stroke="white"/>
<path opacity="0.22" d="M2560 1220H-697.28" stroke="white"/>
<path opacity="0.22" d="M2560 1240H-697.28" stroke="white"/>
<path opacity="0.22" d="M2560 1260H-697.28" stroke="white"/>
<path opacity="0.22" d="M2560 1280H-697.28" stroke="white"/>
<path opacity="0.4" d="M2560 1300H-697.28" stroke="white"/>
<path opacity="0.22" d="M2560 1320H-697.28" stroke="white"/>
<path opacity="0.22" d="M2560 1340H-697.28" stroke="white"/>
<path opacity="0.22" d="M2560 1360H-697.28" stroke="white"/>
<path opacity="0.22" d="M2560 1380H-697.28" stroke="white"/>
<path opacity="0.4" d="M2560 1400H-697.28" stroke="white"/>
<path opacity="0.22" d="M2560 1420H-697.28" stroke="white"/>
<path opacity="0.22" d="M2560 1440H-697.28" stroke="white"/>
<path opacity="0.22" d="M0.000888824 0L0.000488281 1693.33" stroke="white"/>
<path opacity="0.22" d="M20.0014 0L20.001 1693.33" stroke="white"/>
<path opacity="0.22" d="M40.0014 0L40.001 1693.33" stroke="white"/>
<path opacity="0.22" d="M60.0019 0L60.0015 1693.33" stroke="white"/>
<path opacity="0.4" d="M80.0024 0L80.002 1693.33" stroke="white"/>
<path opacity="0.22" d="M100.002 0V1693.33" stroke="white"/>
<path opacity="0.22" d="M120.003 0L120.002 1693.33" stroke="white"/>
<path opacity="0.22" d="M140.003 0V1693.33" stroke="white"/>
<path opacity="0.22" d="M160.004 0L160.003 1693.33" stroke="white"/>
<path opacity="0.4" d="M180.004 0V1693.33" stroke="white"/>
<path opacity="0.22" d="M200.005 0L200.004 1693.33" stroke="white"/>
<path opacity="0.22" d="M220.006 0L220.005 1693.33" stroke="white"/>
<path opacity="0.22" d="M240.006 0V1693.33" stroke="white"/>
<path opacity="0.22" d="M260.007 0L260.006 1693.33" stroke="white"/>
<path opacity="0.4" d="M280.007 0V1693.33" stroke="white"/>
<path opacity="0.22" d="M300.008 0L300.007 1693.33" stroke="white"/>
<path opacity="0.22" d="M320.008 0V1693.33" stroke="white"/>
<path opacity="0.22" d="M340.008 0V1693.33" stroke="white"/>
<path opacity="0.22" d="M360.008 0V1693.33" stroke="white"/>
<path opacity="0.7" d="M380.008 0V1693.33" stroke="white"/>
<path opacity="0.22" d="M400.008 0V1693.33" stroke="white"/>
<path opacity="0.22" d="M420.008 0V1693.33" stroke="white"/>
<path opacity="0.22" d="M440.008 0V1693.33" stroke="white"/>
<path opacity="0.22" d="M460.008 0V1693.33" stroke="white"/>
<path opacity="0.4" d="M480.008 0V1693.33" stroke="white"/>
<path opacity="0.22" d="M500.008 0V1693.33" stroke="white"/>
<path opacity="0.22" d="M520.008 0V1693.33" stroke="white"/>
<path opacity="0.22" d="M540.008 0V1693.33" stroke="white"/>
<path opacity="0.22" d="M560.009 0L560.008 1693.33" stroke="white"/>
<path opacity="0.4" d="M580.009 0V1693.33" stroke="white"/>
<path opacity="0.22" d="M600.01 0L600.009 1693.33" stroke="white"/>
<path opacity="0.22" d="M620.01 0V1693.33" stroke="white"/>
<path opacity="0.22" d="M640.011 0L640.01 1693.33" stroke="white"/>
<path opacity="0.22" d="M660.012 0L660.011 1693.33" stroke="white"/>
<path opacity="0.4" d="M680.012 0V1693.33" stroke="white"/>
<path opacity="0.22" d="M700.013 0L700.012 1693.33" stroke="white"/>
<path opacity="0.22" d="M720.013 0V1693.33" stroke="white"/>
<path opacity="0.22" d="M740.014 0L740.013 1693.33" stroke="white"/>
<path opacity="0.22" d="M760.014 0V1693.33" stroke="white"/>
<path opacity="0.7" d="M780.015 0L780.014 1693.33" stroke="white"/>
<path opacity="0.22" d="M800.016 0L800.015 1693.33" stroke="white"/>
<path opacity="0.22" d="M820.016 0V1693.33" stroke="white"/>
<path opacity="0.22" d="M840.017 0L840.016 1693.33" stroke="white"/>
<path opacity="0.22" d="M860.017 0V1693.33" stroke="white"/>
<path opacity="0.4" d="M880.017 0V1693.33" stroke="white"/>
<path opacity="0.22" d="M900.017 0V1693.33" stroke="white"/>
<path opacity="0.22" d="M920.017 0V1693.33" stroke="white"/>
<path opacity="0.22" d="M940.017 0V1693.33" stroke="white"/>
<path opacity="0.22" d="M960.017 0V1693.33" stroke="white"/>
<path opacity="0.4" d="M980.017 0V1693.33" stroke="white"/>
<path opacity="0.22" d="M1000.02 0V1693.33" stroke="white"/>
<path opacity="0.22" d="M1020.02 0V1693.33" stroke="white"/>
<path opacity="0.22" d="M1040.02 0V1693.33" stroke="white"/>
<path opacity="0.22" d="M1060.02 0V1693.33" stroke="white"/>
<path opacity="0.4" d="M1080.02 0V1693.33" stroke="white"/>
<path opacity="0.22" d="M1100.02 0V1693.33" stroke="white"/>
<path opacity="0.22" d="M1120.02 0V1693.33" stroke="white"/>
<path opacity="0.22" d="M1140.02 0V1693.33" stroke="white"/>
<path opacity="0.22" d="M1160.02 0V1693.33" stroke="white"/>
<path opacity="0.7" d="M1180.02 0V1693.33" stroke="white"/>
<path opacity="0.22" d="M1200.02 0V1693.33" stroke="white"/>
<path opacity="0.22" d="M1220.02 0V1693.33" stroke="white"/>
<path opacity="0.22" d="M1240.02 0V1693.33" stroke="white"/>
<path opacity="0.22" d="M1260.02 0V1693.33" stroke="white"/>
<path opacity="0.4" d="M1280.02 0V1693.33" stroke="white"/>
<path opacity="0.22" d="M1300.02 0V1693.33" stroke="white"/>
<path opacity="0.22" d="M1320.02 0V1693.33" stroke="white"/>
<path opacity="0.22" d="M1340.02 0V1693.33" stroke="white"/>
<path opacity="0.22" d="M1360.02 0V1693.33" stroke="white"/>
<path opacity="0.4" d="M1380.02 0V1693.33" stroke="white"/>
<path opacity="0.22" d="M1400.02 0V1693.33" stroke="white"/>
<path opacity="0.22" d="M1420.02 0V1693.33" stroke="white"/>
<path opacity="0.22" d="M1440.02 0V1693.33" stroke="white"/>
<path opacity="0.22" d="M1460.02 0V1693.33" stroke="white"/>
<path opacity="0.4" d="M1480.02 0V1693.33" stroke="white"/>
<path opacity="0.22" d="M1500.02 0V1693.33" stroke="white"/>
<path opacity="0.22" d="M1520.02 0V1693.33" stroke="white"/>
<path opacity="0.22" d="M1540.02 0V1693.33" stroke="white"/>
<path opacity="0.22" d="M1560.02 0V1693.33" stroke="white"/>
<path opacity="0.7" d="M1580.02 0V1693.33" stroke="white"/>
<path opacity="0.22" d="M1600.02 0V1693.33" stroke="white"/>
<path opacity="0.22" d="M1620.02 0V1693.33" stroke="white"/>
<path opacity="0.22" d="M1640.02 0V1693.33" stroke="white"/>
<path opacity="0.22" d="M1660.02 0V1693.33" stroke="white"/>
<path opacity="0.4" d="M1680.02 0V1693.33" stroke="white"/>
<path opacity="0.22" d="M1700.02 0V1693.33" stroke="white"/>
<path opacity="0.22" d="M1720.02 0V1693.33" stroke="white"/>
<path opacity="0.22" d="M1740.02 0V1693.33" stroke="white"/>
<path opacity="0.22" d="M1760.02 0V1693.33" stroke="white"/>
<path opacity="0.4" d="M1780.02 0V1693.33" stroke="white"/>
<path opacity="0.22" d="M1800.02 0V1693.33" stroke="white"/>
<path opacity="0.22" d="M1820.02 0V1693.33" stroke="white"/>
<path opacity="0.22" d="M1840.02 0V1693.33" stroke="white"/>
<path opacity="0.22" d="M1860.02 0V1693.33" stroke="white"/>
<path opacity="0.4" d="M1880.02 0V1693.33" stroke="white"/>
<path opacity="0.22" d="M1900.02 0V1693.33" stroke="white"/>
<path opacity="0.22" d="M1920.02 0V1693.33" stroke="white"/>
<path opacity="0.22" d="M1940.02 0V1693.33" stroke="white"/>
<path opacity="0.22" d="M1960.02 0V1693.33" stroke="white"/>
<path opacity="0.7" d="M1980.02 0V1693.33" stroke="white"/>
<path opacity="0.22" d="M2000.02 0V1693.33" stroke="white"/>
<path opacity="0.22" d="M2020.02 0V1693.33" stroke="white"/>
<path opacity="0.22" d="M2040.02 0V1693.33" stroke="white"/>
<path opacity="0.22" d="M2060.02 0V1693.33" stroke="white"/>
<path opacity="0.4" d="M2080.02 0V1693.33" stroke="white"/>
<path opacity="0.22" d="M2100.02 0V1693.33" stroke="white"/>
<path opacity="0.22" d="M2120.02 0V1693.33" stroke="white"/>
<path opacity="0.22" d="M2140.02 0V1693.33" stroke="white"/>
<path opacity="0.22" d="M2160.02 0V1693.33" stroke="white"/>
<path opacity="0.4" d="M2180.02 0V1693.33" stroke="white"/>
<path opacity="0.22" d="M2200.02 0V1693.33" stroke="white"/>
<path opacity="0.22" d="M2220.02 0V1693.33" stroke="white"/>
<path opacity="0.22" d="M2240.02 0V1693.33" stroke="white"/>
<path opacity="0.22" d="M2260.02 0V1693.33" stroke="white"/>
<path opacity="0.4" d="M2280.02 0V1693.33" stroke="white"/>
<path opacity="0.22" d="M2300.02 0V1693.33" stroke="white"/>
<path opacity="0.22" d="M2320.02 0V1693.33" stroke="white"/>
<path opacity="0.22" d="M2340.02 0V1693.33" stroke="white"/>
<path opacity="0.22" d="M2360.02 0V1693.33" stroke="white"/>
<path opacity="0.7" d="M2380.02 0V1693.33" stroke="white"/>
<path opacity="0.22" d="M2400.02 0V1693.33" stroke="white"/>
<path opacity="0.22" d="M2420.02 0V1693.33" stroke="white"/>
<path opacity="0.22" d="M2440.02 0V1693.33" stroke="white"/>
<path opacity="0.22" d="M2460.02 0V1693.33" stroke="white"/>
<path opacity="0.4" d="M2480.02 0V1693.33" stroke="white"/>
<path opacity="0.22" d="M2500.02 0V1693.33" stroke="white"/>
<path opacity="0.22" d="M2520.02 0V1693.33" stroke="white"/>
<path opacity="0.22" d="M2540.02 0V1693.33" stroke="white"/>
<path opacity="0.22" d="M2560.02 0V1693.33" stroke="white"/>
</g>
<defs>
<clipPath id="clip0_1401_1623">
<rect width="2560" height="1440" fill="white"/>
</clipPath>
</defs>
</svg>
